<svg xmlns="http://www.w3.org/2000/svg" viewBox="0 0 209.42 209.42"><defs><style>.cls-1{fill:#eba821;}.cls-2{fill:none;}.cls-3{fill:#f8f4bf;}</style></defs><title>Ресурс 5</title><g id="Слой_2" data-name="Слой 2"><g id="Layer_1" data-name="Layer 1"><circle class="cls-1" cx="104.71" cy="104.71" r="104.71"/><circle class="cls-2" cx="104.71" cy="104.71" r="104.71"/><path class="cls-3" d="M161,125a56.25,56.25,0,1,1-112.49,0c0-31.05,18-50.45,49.09-50.45,11.75,4.25,16.53.19,19.08.55C144,78.92,161,96.63,161,125Z"/><path class="cls-3" d="M110.39,73a30.61,30.61,0,0,1,7.25-11A35.35,35.35,0,0,1,127,55.4a34.69,34.69,0,0,1,11-3.23,30.29,30.29,0,0,1,13.15,1.26A30.35,30.35,0,0,1,144,64.5a34.51,34.51,0,0,1-9.38,6.56,35.69,35.69,0,0,1-11,3.21A30.2,30.2,0,0,1,110.39,73Z"/><path class="cls-3" d="M108.65,74.12c1.64-4.82,3.57-10.05,5.76-15.18,3.37-7.89,10-18,10-18a3.87,3.87,0,0,0-.24-4.73l-8-7.59c-1.13-1.06-2.66-.29-3.41,1.74,0,0-4.81,14.06-10.84,43.78Z"/></g></g></svg>