<svg xmlns="http://www.w3.org/2000/svg" viewBox="0 0 209.42 209.42"><defs><style>.cls-1{fill:#2aa79d;}.cls-2{fill:none;}.cls-3{fill:#f8f4bf;}</style></defs><title>Ресурс 5</title><g id="Слой_2" data-name="Слой 2"><g id="Layer_1" data-name="Layer 1"><circle class="cls-1" cx="104.71" cy="104.71" r="104.71"/><circle class="cls-2" cx="104.71" cy="104.71" r="104.71"/><path class="cls-3" d="M107.83,75.31a112.27,112.27,0,0,1,11.24-15.59c4.16-4.77,12.3-10.9,12.3-10.9a1.54,1.54,0,0,0-.3-2.86l-9.83-4.59A3.61,3.61,0,0,0,117,42.42s-7.26,10.43-15.82,32.63c-26.47-12-51.61,4.8-51.61,34,0,30.44,23.43,76.69,55.1,62.72,33.37,14.43,55.12-32.28,55.12-62.72,0-29.41-22.61-46.65-52-33.69Z"/><path class="cls-3" d="M101.9,65.46a3.42,3.42,0,0,0,3-3s1-11.91-7.31-20.21-20.21-7.32-20.21-7.32a3.38,3.38,0,0,0-3,3s-1,11.92,7.3,20.22,20.21,7.32,20.21,7.32Z"/></g></g></svg>