<svg xmlns="http://www.w3.org/2000/svg" viewBox="0 0 209.42 209.42"><defs><style>.cls-1{fill:#5b4a81;}.cls-2{fill:none;}.cls-3{fill:#f8f4bf;}</style></defs><title>Ресурс 41</title><g id="Слой_2" data-name="Слой 2"><g id="Layer_1" data-name="Layer 1"><circle class="cls-1" cx="104.71" cy="104.71" r="104.71"/><circle class="cls-2" cx="104.71" cy="104.71" r="104.71"/><path class="cls-3" d="M110.5,86.38c-.55,1.3-1.09,2.68-1.58,4.17l-6.6,3.1c-.77-6.21-8.08-10.57-12.41-12-8-2.68-16.42-2.89-24,.87C51.28,89.68,46.33,105.13,48,120.8c1.29,12,9.69,26.14,19.5,33.26,5.35,3.88,20.86,15.22,34.13,8,3.54-1.43,15.43,9.59,34.13-1.16C191.45,115.16,145.44,66.27,110.5,86.38ZM81,149.38a35.17,35.17,0,0,1-4-1,41.65,41.65,0,0,1-5-1.93L69.36,145c-.93-.54-1.82-1.22-2.78-1.86s-1.81-1.5-2.76-2.29-1.73-1.8-2.62-2.73a30.45,30.45,0,0,1-4.28-6.76,31,31,0,0,1-2.47-7.93,35,35,0,0,1-.35-8.22,37.57,37.57,0,0,1,1.52-7.72,34.75,34.75,0,0,1,2.92-6.69,28.52,28.52,0,0,1,3.85-5.28A18.83,18.83,0,0,1,66.72,92a10,10,0,0,1,4.12-1.47,5.43,5.43,0,0,1,2.75.36l.81.43h-.92a5.24,5.24,0,0,0-2.22.69,10,10,0,0,0-2.69,2.29A21.12,21.12,0,0,0,66,98.17a35.1,35.1,0,0,0-2.18,5.08,45.21,45.21,0,0,0-1.56,5.94,46.84,46.84,0,0,0-.65,6.43,36.55,36.55,0,0,0,.49,6.53,29.34,29.34,0,0,0,1.73,6.23c.35,1,.86,1.94,1.3,2.9s1.06,1.81,1.57,2.72,1.17,1.7,1.81,2.49,1.25,1.58,1.94,2.28,1.34,1.42,2,2.07l2,1.84c.67.59,1.37,1.08,2,1.61a20.53,20.53,0,0,0,1.87,1.42c1.23.82,2.25,1.7,3.19,2.24,1.84,1.17,2.89,1.94,2.89,1.94S83.22,149.77,81,149.38Z"/><path class="cls-3" d="M102.32,93.65s.16-.55.46-1.47A4.28,4.28,0,0,0,102.32,93.65Z"/><path class="cls-3" d="M110.5,86.38c10.29-24.2,29.83-17.94,29.83-17.94,5-1.16,1.94-5.43,1.94-5.43-10.51-3.7-18.67-.56-24.81,4.88-.61,3.91-2.31,7.33-5.44,9.08a11.67,11.67,0,0,1-2.62.8,70.47,70.47,0,0,0-6.62,14.41c-.3.92-.46,1.47-.46,1.47l6.6-3.1C109.41,89.06,110,87.68,110.5,86.38Z"/><path class="cls-3" d="M117.46,67.89c1.05-6.7-1.12-14.84-5-18.55a17.92,17.92,0,0,0-15.21-5.42,50.6,50.6,0,0,0-11.66,2.41c-2.8,1-5.18,3.34-8,3.81,10.62-3,15.71,6.63,17.33,15.2,1.3,6.82,7,13.85,14.45,12.43A11.67,11.67,0,0,0,112,77C115.15,75.22,116.85,71.8,117.46,67.89Zm-6.21,5.61c-.09-.48-.31-1.06-.47-1.72s-.46-1.39-.68-2.19-.61-1.63-.89-2.53-.71-1.81-1.13-2.75-.86-1.9-1.34-2.86-1-1.89-1.52-2.85-1.11-1.85-1.76-2.67c-.32-.42-.59-.87-.92-1.26l-1-1.15a14.3,14.3,0,0,0-1-1,8.87,8.87,0,0,0-1-.94,15,15,0,0,0-2.1-1.45l-1-.58-.94-.37-.87-.34a5.4,5.4,0,0,0-.8-.19c-1-.2-1.55-.35-1.55-.35s.57-.11,1.56-.26a6.76,6.76,0,0,1,.84-.09c.31,0,.65,0,1,.07l1.2.11,1.25.37a11.22,11.22,0,0,1,2.7,1.17,10.38,10.38,0,0,1,1.34.89,10,10,0,0,1,1.31,1,19.79,19.79,0,0,1,2.39,2.53,28.37,28.37,0,0,1,2,2.93,32,32,0,0,1,1.58,3.15,27.43,27.43,0,0,1,1.18,3.19,30,30,0,0,1,.79,3.06c.17,1,.34,1.92.4,2.8a18.58,18.58,0,0,1,.11,2.39,16.19,16.19,0,0,1-.08,1.83c-.13,1-.24,1.58-.24,1.58S111.47,74.46,111.25,73.5Z"/></g></g></svg>