<svg xmlns="http://www.w3.org/2000/svg" viewBox="0 0 209.42 209.42"><defs><style>.cls-1{fill:#564942;}.cls-2{fill:none;}.cls-3{fill:#f8f4bf;}</style></defs><title>Ресурс 33</title><g id="Слой_2" data-name="Слой 2"><g id="Layer_1" data-name="Layer 1"><circle class="cls-1" cx="104.71" cy="104.71" r="104.71"/><circle class="cls-2" cx="104.71" cy="104.71" r="104.71"/><path class="cls-3" d="M160.17,94c-.1-.46-.19-.93-.32-1.38h0c-3.37-11.46-9.1-13-10.12-19.39s-2.19-13.31-.67-18.87h0l0-.11c.56-2.3,2.4-6.9,2.4-6.9l-5.1-2.6,0,0-8,.27s-3.27,6.89-3.16,8.81a2.61,2.61,0,0,0,2.24,2.37l.34.05c-1.19,3.64-1.93,8.5-7.84,11.6-6.11,3.2-8.58,13.11-18,19.5s-24.1,14.51-41.42,7.28S41.25,79.5,37.25,75.88c-.26-.23-.52-.44-.78-.64l-.24-.16L36.12,75l-.29-.2-.11-.06a2.2,2.2,0,0,0-.26-.15l-.32-.17L35,74.35l-.22-.09-.28-.11-.2-.06-.19,0L33.86,74l-.25,0-.16,0-.2,0H33s-.06,0-.08,0h-.07l-.16,0-.26,0-.29.07a1.06,1.06,0,0,0-.25.09.9.9,0,0,0-.21.08h0l0,0-.25.12-.25.16-.23.16-.23.2-.22.2-.21.23c-.07.08-.14.15-.21.24l-.19.26-.19.27-.18.31a2.75,2.75,0,0,0-.17.29c-.07.12-.12.25-.19.38s-.09.18-.13.28-.19.47-.28.71-.16.48-.24.75h0c-1.31,4.51-2.31,15.84,6.66,27.39.56.73,1.14,1.45,1.77,2.18C48.12,121.25,67.39,128.49,85,127.54a76.85,76.85,0,0,0,31-8.08,38.77,38.77,0,0,1-25.45,9.89c-20.41.34-35.76-2.36-41.33-4.21-.34-.12-.67-.21-1-.29h-.06l-.25-.06-.6-.11h-.12l-.3,0-.42,0h-.76l-.22,0-.23,0-.26,0-.24.06-.19.06-.2.07a2.06,2.06,0,0,0-.26.12l-.05,0-.1,0-.16.09c-.08,0-.15.1-.23.15l-.27.2-.2.19-.18.17s0,0,0,0h0l0,0-.17.21c-.07.1-.14.19-.2.29l-.15.24c-.06.11-.11.22-.16.33a2.72,2.72,0,0,0-.11.25l-.14.38a2.76,2.76,0,0,1-.08.27c0,.14-.06.28-.09.42s0,.19-.06.28,0,.31-.06.48l0,.28c0,.18,0,.36,0,.55v.24c0,.28,0,.56,0,.85s0,.54.09.84h0c.66,5.06,4.6,16.78,18.58,24.38.87.48,1.76,1,2.71,1.4,16.82,7.94,39.18,6.75,56.34-1.86s27.41-20.45,32-28.05c3.69-6.18,9.27-17.94,9.42-28.29A24.53,24.53,0,0,0,160.17,94Zm-58.52,21.68a41.77,41.77,0,0,1-4,1.25l-2.53.69-2.84.57a60.6,60.6,0,0,1-6.49.93l-3.59.21c-1.23.09-2.49,0-3.78,0a53.09,53.09,0,0,1-7.89-.85c-1.35-.2-2.67-.58-4-.9s-2.65-.81-4-1.24A52.77,52.77,0,0,1,55,112.76a42.75,42.75,0,0,1-6.55-4.59,43.77,43.77,0,0,1-5.3-5.23,45.89,45.89,0,0,1-3.94-5.31,42.24,42.24,0,0,1-4.31-8.81,22.12,22.12,0,0,1-1-3.55s.61,1.19,1.86,3.14c.61,1,1.42,2.12,2.35,3.41s2.08,2.67,3.32,4.15,2.75,3,4.33,4.48a64.09,64.09,0,0,0,5.31,4.37c1,.71,2,1.35,3,2s2.09,1.27,3.2,1.84a48.13,48.13,0,0,0,6.87,3c1.2.4,2.38.82,3.6,1.17s2.41.7,3.65.92a65,65,0,0,0,7.26,1.2c2.39.25,4.72.37,6.94.47s4.34.06,6.3-.08l2.81-.12,2.55-.2c1.59-.12,3-.21,4.15-.37,2.31-.25,3.65-.34,3.65-.34S103.86,114.88,101.65,115.67Zm47,1.92a38,38,0,0,1-.82,4.12,19.94,19.94,0,0,1-1.55,4.16l.08-.16a37.48,37.48,0,0,1-7,10.4,45.88,45.88,0,0,1-4.53,4.29,58.14,58.14,0,0,1-5,3.66,55.07,55.07,0,0,1-5.38,3.09,56.2,56.2,0,0,1-5.7,2.45c-1.94.71-3.91,1.32-5.91,1.85a56.3,56.3,0,0,1-6,1.21c-2,.29-4.08.51-6.12.6-1,.08-2,.09-3.07.1s-2,0-3.07-.05c-2-.06-4.06-.29-6.09-.5s-4-.55-6-1-3.93-1-5.88-1.46-3.85-1.18-5.72-1.92S67,147,65.19,146.13s-3.59-1.77-5.38-2.65c1.92.56,3.81,1.18,5.72,1.69s3.82,1,5.75,1.47,3.86.8,5.77,1.21,3.86.67,5.81.85,3.87.38,5.81.53,3.87.15,5.81.07c1,0,1.93-.05,2.89-.11s1.92-.09,2.88-.21c1.91-.17,3.81-.46,5.7-.8s3.74-.78,5.59-1.27,3.65-1.1,5.43-1.78,3.52-1.46,5.22-2.31a49.35,49.35,0,0,0,5-2.77,51.87,51.87,0,0,0,4.64-3.29,56.21,56.21,0,0,0,4.24-3.77,36.13,36.13,0,0,0,6.71-8.93l.08-.16a15.84,15.84,0,0,0,1.48-3.24,33,33,0,0,0,1-3.67,48,48,0,0,0,1.16-7.69,41,41,0,0,0,0-7.83,20.11,20.11,0,0,0-.75-3.83,9.14,9.14,0,0,0-1.81-3.48,7.5,7.5,0,0,1,1.43,1.44,12.24,12.24,0,0,1,1.1,1.75,22.08,22.08,0,0,1,1.43,3.86,39.82,39.82,0,0,1,1.14,8.13A51.92,51.92,0,0,1,148.62,117.59Z"/></g></g></svg>