<svg xmlns="http://www.w3.org/2000/svg" viewBox="0 0 209.42 209.42"><defs><style>.cls-1{fill:#6d973f;}.cls-2{fill:none;}.cls-3{fill:#f8f4bf;}</style></defs><title>Ресурс 9</title><g id="Слой_2" data-name="Слой 2"><g id="Layer_1" data-name="Layer 1"><circle class="cls-1" cx="104.71" cy="104.71" r="104.71"/><circle class="cls-2" cx="104.71" cy="104.71" r="104.71"/><path class="cls-3" d="M135.54,118a27.21,27.21,0,0,0-3.74-.25,33.37,33.37,0,0,0-10.55,1.65c-11-18-24.51-45.4-19.94-65.17a51.12,51.12,0,0,0,1.35,5.88A34.18,34.18,0,0,0,111,74.05a32,32,0,0,0,14,8.34,36.48,36.48,0,0,0,9.66,1.46,34.78,34.78,0,0,0,12.48-2A82.33,82.33,0,0,0,145.63,72a49.69,49.69,0,0,0-2.7-8.21,40.47,40.47,0,0,0-8.77-13A38.69,38.69,0,0,0,121,42.1a43.18,43.18,0,0,0-10.59-2.69c4.64-3.81,10.89-6.54,18.69-8.16.9-.07,1.79-.1,2.69-.1V26.56A43.4,43.4,0,0,0,99.43,40.17c-20.47,21.17-23.68,61-24.09,77.68-13.87.9-24.79,9.75-24.79,23.94a27.08,27.08,0,1,0,54.16,0c0-13.7-10.14-21.94-23.33-23.77-.47-.06-.93-.11-1.41-.14.42-14.82,3.13-48.2,18.14-68.93,0,0,0,0,0,.08-8,21.63,6.81,52.44,18.85,72.27a22.46,22.46,0,0,0-12.21,20.49,27.08,27.08,0,0,0,54.16,0c0-13.7-10.14-21.94-23.33-23.77Zm-31-75c6.64,7.17,27.86,27.32,27.86,27.32-20.8-13.46-29.37-25.28-29.37-25.28Z"/></g></g></svg>