<svg xmlns="http://www.w3.org/2000/svg" viewBox="0 0 209.42 209.42"><defs><style>.cls-1{fill:#0e5258;}.cls-2{fill:none;}.cls-3{fill:#f8f4bf;}</style></defs><title>Ресурс 21</title><g id="Слой_2" data-name="Слой 2"><g id="Layer_1" data-name="Layer 1"><circle class="cls-1" cx="104.71" cy="104.71" r="104.71"/><circle class="cls-2" cx="104.71" cy="104.71" r="104.71"/><path class="cls-3" d="M159.38,88.57a10.94,10.94,0,0,0-10.94-10.94,10.28,10.28,0,0,0-1.67.17,10.91,10.91,0,1,0-20.23-6,10.94,10.94,0,0,0-21.87.35,10.95,10.95,0,1,0-21.89,0,10.95,10.95,0,1,0-21.89,0,10.78,10.78,0,0,0,1.61,5.62A12.62,12.62,0,0,0,61,77.63a10.94,10.94,0,1,0,0,21.88,10.44,10.44,0,0,0,2.47-.31A10.9,10.9,0,0,0,71.91,117a11.14,11.14,0,0,0,3.18-.52A10.91,10.91,0,0,0,87,134.27a10.87,10.87,0,0,0,10,18.92,10.95,10.95,0,1,0,15.69,0,10.88,10.88,0,0,0,9.94-18.92,10.83,10.83,0,0,0,4.1.82,10.92,10.92,0,0,0,7.87-18.51,11.5,11.5,0,0,0,2.95.45A10.89,10.89,0,0,0,146,99.22a10.91,10.91,0,0,0,13.41-10.65ZM130.84,74.15a9.07,9.07,0,0,0,5.91,2.62,6.82,6.82,0,0,0,5.84-3l1.08.58c-2.17,3-3.92,5.25-6.61,5.32h-.16c-4.39,0-6.87-4.81-7-5ZM127.6,91.28a9,9,0,0,0,5.9,2.62A6.81,6.81,0,0,0,139.35,91l1.06.57c-2.15,3-3.9,5.24-6.6,5.32h-.15c-4.41,0-6.86-4.81-7-5ZM109.45,75.43a9.07,9.07,0,0,0,5.91,2.62,6.84,6.84,0,0,0,5.84-3l1.07.58c-2.16,3-3.9,5.25-6.6,5.31h-.17c-4.4,0-6.86-4.8-7-5Zm0,15.85a9.07,9.07,0,0,0,5.91,2.62A6.8,6.8,0,0,0,121.2,91l1.07.57c-2.16,3-3.9,5.24-6.6,5.32h-.17c-4.4,0-6.86-4.81-7-5Zm-3.2,16.6a9,9,0,0,0,5.91,2.62,6.81,6.81,0,0,0,5.85-2.94l1.06.58c-2.15,3-3.9,5.25-6.59,5.29h-.16c-4.4,0-6.88-4.78-7-5Zm-1,19.58a6.85,6.85,0,0,0,5.87-2.94l1,.58c-2.15,3-3.91,5.25-6.59,5.31h-.17c-4.4,0-6.86-4.8-7-5l.95-.6a8.88,8.88,0,0,0,5.89,2.62ZM86.66,74.74l.93-.59a9.21,9.21,0,0,0,5.93,2.62,6.82,6.82,0,0,0,5.84-3l1.06.58c-2.15,3-3.91,5.25-6.59,5.32h-.17c-4.4,0-6.88-4.81-7-5Zm15.52,16.79c-2.16,3-3.91,5.24-6.59,5.32h-.17c-4.39,0-6.88-4.81-7-5l.94-.59a9,9,0,0,0,5.9,2.62A6.8,6.8,0,0,0,101.11,91ZM86.63,107.88a9,9,0,0,0,5.9,2.62,6.81,6.81,0,0,0,5.85-2.94l1.08.58c-2.17,3-3.92,5.25-6.6,5.29h-.17c-4.39,0-6.86-4.78-7-5ZM82.76,91l1.06.57c-2.15,3-3.9,5.24-6.59,5.32h-.17c-4.4,0-6.84-4.81-7-5l1-.59a9.07,9.07,0,0,0,5.91,2.62A6.8,6.8,0,0,0,82.76,91ZM65.41,74.15a9.07,9.07,0,0,0,5.91,2.62,6.84,6.84,0,0,0,5.85-3l1,.58c-2.15,3-3.89,5.25-6.59,5.32h-.15c-4.4,0-6.88-4.81-7-5Zm-5,21.56h-.16c-4.39,0-6.87-4.79-7-5l.94-.59a9.07,9.07,0,0,0,5.91,2.62,6.82,6.82,0,0,0,5.84-3l1.08.58c-2.15,3-3.92,5.25-6.61,5.3Zm12.44,16.93h-.16c-4.41,0-6.87-4.8-7-5l.95-.57a9,9,0,0,0,5.91,2.6,6.79,6.79,0,0,0,5.84-2.93l1.06.56c-2.15,3-3.89,5.27-6.59,5.32Zm12.56,17.77h-.17c-4.39,0-6.87-4.8-7-5l1-.6a9,9,0,0,0,5.9,2.62,6.81,6.81,0,0,0,5.85-2.94l1.06.58c-2.15,3-3.9,5.25-6.58,5.31ZM97,148.74c-4.4,0-6.86-4.8-7-5l1-.59a9,9,0,0,0,5.9,2.61,6.86,6.86,0,0,0,5.85-2.94l1.06.57c-2.15,3-3.9,5.24-6.59,5.32Zm8.6,18.6h-.17c-4.4,0-6.86-4.79-7-5l.93-.59a9,9,0,0,0,5.91,2.62,6.84,6.84,0,0,0,5.87-2.93l1,.56c-2.15,3-3.91,5.26-6.59,5.32Zm8-18.6h-.17c-4.4,0-6.86-4.8-7-5l1-.59a9,9,0,0,0,5.9,2.61,6.86,6.86,0,0,0,5.85-2.94l1.06.57c-2.15,3-3.9,5.26-6.59,5.32Zm13.31-18.33h-.17c-4.4,0-6.86-4.8-7-5l1-.6a9,9,0,0,0,5.91,2.62,6.83,6.83,0,0,0,5.84-2.94l1.06.58c-2.16,3-3.91,5.25-6.59,5.31Zm10.12-17h-.16c-4.41,0-6.87-4.78-7-5l1-.6a9,9,0,0,0,5.91,2.61,6.82,6.82,0,0,0,5.84-2.93l1.08.56c-2.17,3-3.92,5.27-6.61,5.31Zm5.59-22.68.95-.59a9.07,9.07,0,0,0,5.91,2.62,6.85,6.85,0,0,0,5.85-3l1.06.58c-2.15,3-3.9,5.25-6.6,5.3h-.15c-4.41,0-6.88-4.79-7-5Z"/><path class="cls-3" d="M102.83,75.8s7.1-25.37-6.29-33.22"/><path class="cls-3" d="M104.71,54.82a15.68,15.68,0,0,1,3-9.84,17.16,17.16,0,0,1,7.17-5.83,16.77,16.77,0,0,1,9.76-1.21,11.67,11.67,0,0,1,8.76,6.31c-3.35,2.43-5.16,4.16-7,5.6a21.9,21.9,0,0,1-5.4,3.33,24.37,24.37,0,0,1-6.7,1.81,33.88,33.88,0,0,1-9.57-.17Z"/><path class="cls-3" d="M104,57.53a34.17,34.17,0,0,1-9.07.94,32.63,32.63,0,0,1-7-1,35.17,35.17,0,0,1-6.15-2.22c-2.11-1-4.27-2.1-7.77-3.53A11.46,11.46,0,0,1,81.61,45a17.43,17.43,0,0,1,9.54-.21,18.62,18.62,0,0,1,7.95,4.32A15.64,15.64,0,0,1,104,57.53Z"/></g></g></svg>