<svg xmlns="http://www.w3.org/2000/svg" viewBox="0 0 209.42 209.42"><defs><style>.cls-1{fill:#f15b69;}.cls-2{fill:none;}.cls-3{fill:#f8f4bf;}</style></defs><title>Ресурс 45</title><g id="Слой_2" data-name="Слой 2"><g id="Layer_1" data-name="Layer 1"><circle class="cls-1" cx="104.71" cy="104.71" r="104.71"/><circle class="cls-2" cx="104.71" cy="104.71" r="104.71"/><path class="cls-2" d="M136.65,74.39a38.41,38.41,0,0,0-4.57.4,55.54,55.54,0,0,1,4.72,22.49,56.49,56.49,0,0,1-34.57,52,45.37,45.37,0,1,0,34.42-74.87ZM135,162.29A42.23,42.23,0,0,1,107.76,151L135,123.73Zm44.1-44.1H140.55l27.26-27.26A42.15,42.15,0,0,1,179.12,118.19ZM138.28,77.35a42.28,42.28,0,0,1,27.26,11.29L138.28,115.9Zm0,84.94V123.73L165.54,151A42.4,42.4,0,0,1,138.28,162.29Zm29.53-13.58-27.26-27.28h38.57A42.31,42.31,0,0,1,167.81,148.71Z"/><path class="cls-2" d="M133,97.28a52.59,52.59,0,1,0-52.59,52.6A52.67,52.67,0,0,0,133,97.28ZM44.35,63.84,75.9,95.4H31.29A48.86,48.86,0,0,1,44.35,63.84ZM31.29,99.15H75.9L44.35,130.71A49,49,0,0,1,31.29,99.15Zm47.28,47.29A49.07,49.07,0,0,1,47,133.38L78.57,101.8Zm0-53.7L47,61.18A48.82,48.82,0,0,1,78.57,48.12Zm51,2.66H85l31.56-31.56A49.12,49.12,0,0,1,129.61,95.4ZM82.33,48.12a48.92,48.92,0,0,1,31.55,13.06L82.33,92.74Zm0,98.32V101.82l31.55,31.56A49.07,49.07,0,0,1,82.33,146.44ZM85,99.15h44.62a49.08,49.08,0,0,1-13.06,31.56Z"/><path class="cls-3" d="M138.28,77.35V115.9l27.26-27.26A42.28,42.28,0,0,0,138.28,77.35Z"/><path class="cls-3" d="M135,162.29V123.73L107.76,151A42.23,42.23,0,0,0,135,162.29Z"/><path class="cls-3" d="M179.12,118.19a42.15,42.15,0,0,0-11.31-27.26l-27.26,27.26Z"/><path class="cls-3" d="M138.28,162.29A42.4,42.4,0,0,0,165.54,151l-27.26-27.25Z"/><path class="cls-3" d="M167.81,148.71a42.31,42.31,0,0,0,11.31-27.28H140.55Z"/><path class="cls-3" d="M136.65,71.13a49.05,49.05,0,0,0-6.1.45A56.41,56.41,0,1,0,99,150.44a48.62,48.62,0,1,0,37.65-79.31Zm-56.2,78.75A52.6,52.6,0,1,1,133,97.28,52.67,52.67,0,0,1,80.45,149.88Zm56.2,15.38a45.21,45.21,0,0,1-34.42-16,56.49,56.49,0,0,0,34.57-52,55.54,55.54,0,0,0-4.72-22.49,38.41,38.41,0,0,1,4.57-.4,45.44,45.44,0,0,1,0,90.87Z"/><path class="cls-3" d="M31.29,99.15a49,49,0,0,0,13.06,31.56L75.9,99.15Z"/><path class="cls-3" d="M82.33,48.12V92.74l31.55-31.56A48.92,48.92,0,0,0,82.33,48.12Z"/><path class="cls-3" d="M44.35,63.84A48.86,48.86,0,0,0,31.29,95.4H75.9Z"/><path class="cls-3" d="M78.57,92.74V48.12A48.82,48.82,0,0,0,47,61.18Z"/><path class="cls-3" d="M78.57,146.44V101.8L47,133.38A49.07,49.07,0,0,0,78.57,146.44Z"/><path class="cls-3" d="M129.61,95.4a49.12,49.12,0,0,0-13.06-31.56L85,95.4Z"/><path class="cls-3" d="M82.33,146.44a49.07,49.07,0,0,0,31.55-13.06L82.33,101.82Z"/><path class="cls-3" d="M85,99.15l31.56,31.56a49.08,49.08,0,0,0,13.06-31.56Z"/></g></g></svg>