<svg xmlns="http://www.w3.org/2000/svg" viewBox="0 0 209.42 209.42"><defs><style>.cls-1{fill:#b6352b;}.cls-2{fill:none;}.cls-3{fill:#f8f4bf;}</style></defs><title>Ресурс 13</title><g id="Слой_2" data-name="Слой 2"><g id="Layer_1" data-name="Layer 1"><circle class="cls-1" cx="104.71" cy="104.71" r="104.71"/><circle class="cls-2" cx="104.71" cy="104.71" r="104.71"/><path class="cls-3" d="M189.13,74.37l-7.45,0a77,77,0,0,1-153.92.48l-7.47,0a84.42,84.42,0,0,0,168.84-.54Z"/><path class="cls-3" d="M34.43,75.61A70.27,70.27,0,1,0,175,75.17Zm23.8,24a8.09,8.09,0,0,1-2.76-4.79,8.12,8.12,0,0,1,1.66-5.25,8.25,8.25,0,0,1,2.76,4.78A8.2,8.2,0,0,1,58.23,99.64ZM79,105.7a8.27,8.27,0,0,1-3.09-4.58,8.2,8.2,0,0,1,1.33-5.36,8.18,8.18,0,0,1,3.07,4.58A8.22,8.22,0,0,1,79,105.7ZM90.24,85.39a8.22,8.22,0,0,1,5.13-2,8.16,8.16,0,0,1-2,5.16,8.22,8.22,0,0,1-5.14,2A8.18,8.18,0,0,1,90.24,85.39ZM96.75,115a8.28,8.28,0,0,1-4-3.86,8.19,8.19,0,0,1,5.51-.32,8.1,8.1,0,0,1,4,3.85A8.25,8.25,0,0,1,96.75,115Zm10.94-15.51a8.19,8.19,0,0,1-5.12,2,6.8,6.8,0,0,1,7.1-7.15A8.16,8.16,0,0,1,107.69,99.48Zm7.54,17.76a8.3,8.3,0,0,1-5.09,2.15,6.78,6.78,0,0,1,6.92-7.35A8.22,8.22,0,0,1,115.23,117.24Zm9-22.74a8.31,8.31,0,0,1-2.68-4.85,8.3,8.3,0,0,1,1.81-5.22A8.2,8.2,0,0,1,126,89.26,8.3,8.3,0,0,1,124.18,94.5Zm10.11,12.57a6.8,6.8,0,0,1-6.1-8,6.85,6.85,0,0,1,6.1,8Zm20.82-17.81a8.23,8.23,0,0,1,5.15,2,8.14,8.14,0,0,1,2,5.14,6.81,6.81,0,0,1-7.15-7.12Z"/></g></g></svg>