<svg xmlns="http://www.w3.org/2000/svg" viewBox="0 0 209.42 209.42"><defs><style>.cls-1{fill:#c95233;}.cls-2{fill:none;}.cls-3{fill:#f8f4bf;}</style></defs><title>Ресурс 49</title><g id="Слой_2" data-name="Слой 2"><g id="Layer_1" data-name="Layer 1"><circle class="cls-1" cx="104.71" cy="104.71" r="104.71"/><circle class="cls-2" cx="104.71" cy="104.71" r="104.71"/><path class="cls-3" d="M49.15,106.83A55.31,55.31,0,0,0,63.91,142.5l35.66-35.67Z"/><path class="cls-3" d="M106.83,49.14V99.58L142.5,63.9a55.36,55.36,0,0,0-35.67-14.76Z"/><path class="cls-3" d="M63.91,66.92a55.23,55.23,0,0,0-14.76,35.67H99.57Z"/><path class="cls-3" d="M102.59,99.58V49.14A55.26,55.26,0,0,0,66.92,63.9Z"/><path class="cls-3" d="M102.59,160.28V109.82L66.92,145.51a55.53,55.53,0,0,0,35.67,14.77Z"/><path class="cls-3" d="M160.27,102.59a55.44,55.44,0,0,0-14.76-35.67l-35.66,35.67Z"/><path class="cls-3" d="M106.83,160.28a55.53,55.53,0,0,0,35.67-14.77l-35.67-35.66Z"/><path class="cls-3" d="M109.85,106.83l35.66,35.67a55.42,55.42,0,0,0,14.76-35.67Z"/><path class="cls-3" d="M104.71,168.71a64,64,0,1,1,64-64A64.07,64.07,0,0,1,104.71,168.71Zm0-123a59,59,0,1,0,59,59A59.07,59.07,0,0,0,104.71,45.71Z"/></g></g></svg>