<svg xmlns="http://www.w3.org/2000/svg" xmlns:xlink="http://www.w3.org/1999/xlink" xmlns:fi="http://pattern.flaticon.com/" x="0" y="0" width="700" height="350" viewBox="0 0 700 350"><rect x="0px" y="0px" width="100%" height="100%" opacity="1" fill="#ffffff"/><defs><g transform="matrix(0.17578092217445374 0 0 0.17578092217445374 -41 260.0000000219726)" id="L1_830"><path d="m295.371094 274.941406c-83.3125 83.308594-222.679688 122.113282-272.960938 71.832032l301.691406-301.691407c71.832032 28.730469 54.578126 146.550781-28.730468 229.859375zm0 0" fill="#b4e6a0"/><path d="m59.300781 309.882812-36.890625 36.890626c13.636719 13.636718 33.90625 20.71875 57.753906 22.136718-11.914062-15.332031-18.714843-35.652344-20.863281-59.027344zm0 0" fill="#96d7a5"/><path d="m94.242188 73.8125c-83.308594 83.308594-122.113282 222.675781-71.832032 272.960938l301.691406-301.691407c-28.730468-71.832031-146.550781-54.578125-229.859374 28.730469zm0 0" fill="#96d7a5"/><path d="m175.871094 36.191406c11.597656-11.597656 23.820312-22.144531 36.28125-31.648437-39.046875 9.390625-81.757813 33.121093-117.910156 69.269531-83.308594 83.308594-122.113282 222.675781-71.828126 272.960938l36.890626-36.890626c-7.351563-80.054687 39.167968-196.289062 116.566406-273.691406zm0 0" fill="#78c89b"/><path d="m324.101562 45.082031c-2.746093-6.863281-6.3125-12.898437-10.578124-18.15625-28.644532-18.714843-107.570313 19.578125-177.082032 89.085938-83.308594 83.308593-143.210937 201.578125-114.03125 230.757812zm0 0" fill="#b4e6a0"/><path d="m324.101562 45.082031c6.863282 2.742188 12.898438 6.3125 18.15625 10.578125 18.714844 28.644532-19.578124 107.570313-89.085937 177.082032-83.308594 83.308593-201.578125 143.210937-230.757813 114.03125zm0 0" fill="#cdf5a0"/><path d="m345.976562 162.164062 44.191407 108.339844c.414062 1.015625 1.367187 1.707032 2.460937 1.789063l116.695313 8.550781c2.578125.1875 3.625 3.410156 1.648437 5.078125l-89.382812 75.511719c-.835938.707031-1.199219 1.824218-.9375 2.890625l27.925781 113.625c.617187 2.507812-2.125 4.5-4.320313 3.140625l-99.433593-61.675782c-.929688-.578124-2.109375-.578124-3.039063 0l-99.433594 61.675782c-2.195312 1.359375-4.9375-.632813-4.320312-3.140625l27.925781-113.625c.261719-1.0625-.101562-2.183594-.941406-2.890625l-89.378906-75.511719c-1.976563-1.667969-.929688-4.890625 1.648437-5.078125l116.695313-8.550781c1.09375-.082031 2.042969-.773438 2.457031-1.789063l44.195312-108.339844c.976563-2.394531 4.367188-2.394531 5.34375 0zm0 0" fill="#cdf5a0"/><path d="m410.804688 348.660156 55.046874-46.503906c3.082032-2.601562 1.445313-7.628906-2.574218-7.925781l-71.875-5.265625c-7.425782-.542969-13.898438-5.246094-16.710938-12.140625l-27.21875-66.730469c-1.523437-3.734375-6.808594-3.734375-8.332031 0l-27.21875 66.726562c-2.8125 6.894532-9.289063 11.601563-16.714844 12.144532l-71.871093 5.265625c-4.023438.296875-5.65625 5.324219-2.574219 7.925781l55.046875 46.503906c5.691406 4.808594 8.164062 12.421875 6.386718 19.652344l-17.199218 69.980469c-.960938 3.914062 3.3125 7.023437 6.738281 4.898437l61.242187-37.984375c3.101563-1.925781 6.675782-2.945312 10.332032-2.945312 3.652344 0 7.222656 1.019531 10.328125 2.941406l61.242187 37.988281c3.425782 2.125 7.703125-.984375 6.742188-4.898437l-17.199219-69.976563c-1.78125-7.234375.691406-14.851562 6.382813-19.65625zm0 0" fill="#e1ffa0"/><path d="m368.445312 373.519531c-2.589843 0-5.132812-1.191406-6.765624-3.445312l-10.28125-14.140625c-2.394532-3.300782-7.3125-3.300782-9.710938 0l-10.277344 14.140625c-2.71875 3.738281-7.945312 4.546875-11.675781 1.847656-2.25-1.636719-3.441406-4.191406-3.441406-6.777344 0-1.699219.519531-3.417969 1.597656-4.898437l10.273437-14.140625c2.394532-3.296875.875-7.972657-3.003906-9.234375l-16.617187-5.398438c-3.535157-1.152344-5.777344-4.421875-5.777344-7.949218 0-.859376.128906-1.722657.40625-2.582032 1.429687-4.390625 6.140625-6.78125 10.53125-5.371094l16.625 5.40625c3.875 1.261719 7.855469-1.628906 7.855469-5.707031v-17.484375c0-4.621094 3.738281-8.359375 8.359375-8.359375 4.621093 0 8.359375 3.738281 8.359375 8.359375v17.484375c0 4.078125 3.980468 6.96875 7.859375 5.707031l16.621093-5.40625c4.382813-1.417968 9.101563.980469 10.53125 5.371094.277344.859375.40625 1.722656.40625 2.582032 0 3.523437-2.242187 6.796874-5.777343 7.949218l-16.617188 5.398438c-3.878906 1.261718-5.398437 5.9375-3 9.234375l10.269531 14.140625c1.078126 1.480468 1.601563 3.199218 1.601563 4.898437 0 2.589844-1.195313 5.144531-3.445313 6.777344-1.484374 1.074219-3.199218 1.597656-4.90625 1.597656zm0 0" fill="#faffd7"/><path d="m59.300781 309.878906c-3.542969-38.597656 5.414063-85.566406 24.347657-132.585937-53.308594 71.558593-83.7343755 146.980469-61.234376 169.476562v.003907zm0 0" fill="#96d7a5"/><path d="m59.300781 309.878906-36.890625 36.890625.003906.003907c9.085938 8.929687 25.535157 9.480468 46.964844 3.984374-5.363281-12.011718-8.691406-25.800781-10.078125-40.878906zm0 0" fill="#b4e6a0"/></g><g transform="matrix(-0.11718728393316269 0 0 0.11718728393316269 117.4998893737793 57.500000014648435)" id="L1_831"><path d="m295.371094 274.941406c-83.3125 83.308594-222.679688 122.113282-272.960938 71.832032l301.691406-301.691407c71.832032 28.730469 54.578126 146.550781-28.730468 229.859375zm0 0" fill="#b4e6a0"/><path d="m59.300781 309.882812-36.890625 36.890626c13.636719 13.636718 33.90625 20.71875 57.753906 22.136718-11.914062-15.332031-18.714843-35.652344-20.863281-59.027344zm0 0" fill="#96d7a5"/><path d="m94.242188 73.8125c-83.308594 83.308594-122.113282 222.675781-71.832032 272.960938l301.691406-301.691407c-28.730468-71.832031-146.550781-54.578125-229.859374 28.730469zm0 0" fill="#96d7a5"/><path d="m175.871094 36.191406c11.597656-11.597656 23.820312-22.144531 36.28125-31.648437-39.046875 9.390625-81.757813 33.121093-117.910156 69.269531-83.308594 83.308594-122.113282 222.675781-71.828126 272.960938l36.890626-36.890626c-7.351563-80.054687 39.167968-196.289062 116.566406-273.691406zm0 0" fill="#78c89b"/><path d="m324.101562 45.082031c-2.746093-6.863281-6.3125-12.898437-10.578124-18.15625-28.644532-18.714843-107.570313 19.578125-177.082032 89.085938-83.308594 83.308593-143.210937 201.578125-114.03125 230.757812zm0 0" fill="#b4e6a0"/><path d="m324.101562 45.082031c6.863282 2.742188 12.898438 6.3125 18.15625 10.578125 18.714844 28.644532-19.578124 107.570313-89.085937 177.082032-83.308594 83.308593-201.578125 143.210937-230.757813 114.03125zm0 0" fill="#cdf5a0"/><path d="m345.976562 162.164062 44.191407 108.339844c.414062 1.015625 1.367187 1.707032 2.460937 1.789063l116.695313 8.550781c2.578125.1875 3.625 3.410156 1.648437 5.078125l-89.382812 75.511719c-.835938.707031-1.199219 1.824218-.9375 2.890625l27.925781 113.625c.617187 2.507812-2.125 4.5-4.320313 3.140625l-99.433593-61.675782c-.929688-.578124-2.109375-.578124-3.039063 0l-99.433594 61.675782c-2.195312 1.359375-4.9375-.632813-4.320312-3.140625l27.925781-113.625c.261719-1.0625-.101562-2.183594-.941406-2.890625l-89.378906-75.511719c-1.976563-1.667969-.929688-4.890625 1.648437-5.078125l116.695313-8.550781c1.09375-.082031 2.042969-.773438 2.457031-1.789063l44.195312-108.339844c.976563-2.394531 4.367188-2.394531 5.34375 0zm0 0" fill="#cdf5a0"/><path d="m410.804688 348.660156 55.046874-46.503906c3.082032-2.601562 1.445313-7.628906-2.574218-7.925781l-71.875-5.265625c-7.425782-.542969-13.898438-5.246094-16.710938-12.140625l-27.21875-66.730469c-1.523437-3.734375-6.808594-3.734375-8.332031 0l-27.21875 66.726562c-2.8125 6.894532-9.289063 11.601563-16.714844 12.144532l-71.871093 5.265625c-4.023438.296875-5.65625 5.324219-2.574219 7.925781l55.046875 46.503906c5.691406 4.808594 8.164062 12.421875 6.386718 19.652344l-17.199218 69.980469c-.960938 3.914062 3.3125 7.023437 6.738281 4.898437l61.242187-37.984375c3.101563-1.925781 6.675782-2.945312 10.332032-2.945312 3.652344 0 7.222656 1.019531 10.328125 2.941406l61.242187 37.988281c3.425782 2.125 7.703125-.984375 6.742188-4.898437l-17.199219-69.976563c-1.78125-7.234375.691406-14.851562 6.382813-19.65625zm0 0" fill="#e1ffa0"/><path d="m368.445312 373.519531c-2.589843 0-5.132812-1.191406-6.765624-3.445312l-10.28125-14.140625c-2.394532-3.300782-7.3125-3.300782-9.710938 0l-10.277344 14.140625c-2.71875 3.738281-7.945312 4.546875-11.675781 1.847656-2.25-1.636719-3.441406-4.191406-3.441406-6.777344 0-1.699219.519531-3.417969 1.597656-4.898437l10.273437-14.140625c2.394532-3.296875.875-7.972657-3.003906-9.234375l-16.617187-5.398438c-3.535157-1.152344-5.777344-4.421875-5.777344-7.949218 0-.859376.128906-1.722657.40625-2.582032 1.429687-4.390625 6.140625-6.78125 10.53125-5.371094l16.625 5.40625c3.875 1.261719 7.855469-1.628906 7.855469-5.707031v-17.484375c0-4.621094 3.738281-8.359375 8.359375-8.359375 4.621093 0 8.359375 3.738281 8.359375 8.359375v17.484375c0 4.078125 3.980468 6.96875 7.859375 5.707031l16.621093-5.40625c4.382813-1.417968 9.101563.980469 10.53125 5.371094.277344.859375.40625 1.722656.40625 2.582032 0 3.523437-2.242187 6.796874-5.777343 7.949218l-16.617188 5.398438c-3.878906 1.261718-5.398437 5.9375-3 9.234375l10.269531 14.140625c1.078126 1.480468 1.601563 3.199218 1.601563 4.898437 0 2.589844-1.195313 5.144531-3.445313 6.777344-1.484374 1.074219-3.199218 1.597656-4.90625 1.597656zm0 0" fill="#faffd7"/><path d="m59.300781 309.878906c-3.542969-38.597656 5.414063-85.566406 24.347657-132.585937-53.308594 71.558593-83.7343755 146.980469-61.234376 169.476562v.003907zm0 0" fill="#96d7a5"/><path d="m59.300781 309.878906-36.890625 36.890625.003906.003907c9.085938 8.929687 25.535157 9.480468 46.964844 3.984374-5.363281-12.011718-8.691406-25.800781-10.078125-40.878906zm0 0" fill="#b4e6a0"/></g><g transform="matrix(0.039062488824129105 0 0 0.039062488824129105 340 165)" id="L1_832"><path d="m495.484375 239.484375c0 132.261719-107.222656 239.484375-239.484375 239.484375s-239.484375-107.222656-239.484375-239.484375c0-132.265625 107.222656-239.484375 239.484375-239.484375s239.484375 107.21875 239.484375 239.484375zm0 0" fill="#cdf5a0"/><path d="m476.046875 144.828125c-11.441406-1.824219-23.398437-3.097656-35.796875-3.601563l-.507812-.019531c-4.867188-.199219-9.640626-.296875-14.183594-.296875-14.527344 0-27.65625.984375-40.144532 3.011719-4.773437.777344-9.488281 1.707031-14.167968 2.714844.15625-4.082031.367187-8.164063.367187-12.246094 0-39.8125-7.484375-79.085937-21.589843-115.226563-6.898438-2.949218-13.972657-5.589843-21.1875-7.890624 17.160156 37.914062 26.261718 80.1875 26.261718 123.117187 0 5.472656-.203125 10.953125-.492187 16.421875-22.339844 6.300781-43.378907 15.316406-62.820313 26.613281-27.429687-44.300781-67.6875-80.207031-114.9375-101.765625-4.160156-1.902344-9.046875-.0625-10.945312 4.085938-1.886719 4.148437-.0625 9.046875 4.089844 10.941406 44.316406 20.21875 82.074218 53.910156 107.789062 95.480469-73.714844 49.074219-120.878906 132.664062-120.878906 226.734375 0 15.597656 1.507812 31.121094 4.164062 46.46875 29.113282 12.585937 61.199219 19.597656 94.933594 19.597656 132.261719 0 239.484375-107.222656 239.484375-239.484375 0-33.632813-6.921875-65.609375-19.4375-94.65625zm0 0" fill="#bee891"/><path d="m66.867188 81.152344c-6.210938-1.484375-12.816407.941406-16.617188 6.070312-31.554688 42.554688-50.25 95.214844-50.25 152.261719 0 124.835937 89.371094 228.742187 207.613281 251.371094l40.128907-251.371094c-31.007813-75.753906-99.558594-138.886719-180.875-158.332031zm0 0" fill="#afdc82"/><path d="m78.636719 209.546875c0-41.433594 9.347656-80.789063 25.84375-115.980469-12.140625-5.148437-24.734375-9.335937-37.617188-12.414062-6.207031-1.484375-12.8125.941406-16.613281 6.070312-31.554688 42.554688-50.25 95.214844-50.25 152.261719 0 124.835937 89.371094 228.742187 207.613281 251.371094l7.167969-44.914063c-81.386719-47.347656-136.144531-135.449218-136.144531-236.394531zm0 0" fill="#96cd82"/><path d="m504.128906 176.511719c-1.453125-5.734375-6.011718-10.285157-11.757812-11.6875-17.226563-4.199219-35.144532-6.382813-52.789063-7.09375l-.507812-.019531c-17.046875-.695313-34.171875-.222657-51.011719 2.515624-121.71875 19.769532-214.640625 125.371094-214.640625 252.675782 0 25.078125 3.667969 49.285156 10.390625 72.191406 35.285156 10.355469 73.671875 13.464844 113.5625 7.074219 107.964844-17.300781 194.003906-103.335938 211.308594-211.300781 5.839844-36.441407 3.75-71.636719-4.554688-104.355469zm0 0" fill="#cdf5a0"/><path d="m52.054688 233.144531c.363281.046875.726562.074219 1.089843.074219 4.082031 0 7.628907-3.019531 8.175781-7.171875.597657-4.476563 1.308594-8.921875 2.140626-13.316406.84375-4.484375-2.097657-8.800781-6.574219-9.652344-4.558594-.890625-8.808594 2.09375-9.652344 6.570313-.894531 4.703124-1.65625 9.445312-2.285156 14.226562-.59375 4.519531 2.582031 8.671875 7.105469 9.269531zm0 0" fill="#afdc82"/><path d="m198.554688 484.632812c-46.675782-25.648437-83.648438-62.941406-107.785157-106.363281 4.980469-6.980469 24.070313-32.074219 52.511719-49.175781 3.910156-2.347656 5.179688-7.421875 2.832031-11.332031-2.355469-3.910157-7.425781-5.179688-11.332031-2.824219-25.089844 15.078125-43.210938 35.324219-52.382812 46.957031-15-32.214843-23.214844-67.238281-23.214844-103.140625 0-4.5625-3.691406-8.257812-8.257813-8.257812-4.5625 0-8.257812 3.695312-8.257812 8.257812 0 12.320313.902343 24.546875 2.644531 36.605469-19.378906-7.925781-36.164062-23.125-44.128906-31.097656.835937 8.660156 2.09375 17.179687 3.769531 25.566406 11.535156 9.25 26.902344 19.285156 43.769531 24.113281 13.59375 61.757813 49.660156 118.09375 101.875 158.839844 16.476563 7.460938 33.742188 13.242188 51.929688 16.984375-.554688-2.109375-1.90625-4-3.972656-5.132813zm0 0" fill="#afdc82"/><g fill="#bee891"><path d="m116.894531 349.03125c7.5-6.882812 16.347657-13.902344 26.386719-19.9375 3.910156-2.347656 5.179688-7.421875 2.832031-11.332031-2.355469-3.910157-7.425781-5.179688-11.332031-2.824219-9.804688 5.890625-18.558594 12.574219-26.117188 19.21875 2.597657 5.054688 5.335938 10.011719 8.230469 14.875zm0 0"/><path d="m173.550781 416.535156c.339844 23.773438 3.871094 46.777344 10.265625 68.566406 35.285156 10.355469 73.667969 13.457032 113.558594 7.066407 13.5625-2.171875 26.773438-5.4375 39.550781-9.6875-62.316406-3.390625-119.03125-27.683594-163.375-65.945313zm0 0"/><path d="m496.183594 328.414062c-11.199219 7.460938-39.667969 24.199219-75.640625 28.972657 18.929687-35.808594 29.519531-75.898438 29.519531-117.902344 0-4.558594-3.691406-8.257813-8.257812-8.257813-4.5625 0-8.257813 3.699219-8.257813 8.257813 0 71.136719-32.53125 136.445313-85.128906 182.78125-6.195313-21.550781-21.097657-68.5625-43.878907-110.34375-2.183593-4.011719-7.21875-5.488281-11.199218-3.300781-4.011719 2.183594-5.484375 7.199218-3.300782 11.203125 24.699219 45.296875 40.21875 98.527343 44.425782 113.898437-37.621094 28.90625-83.886719 48.730469-134.9375 55.433594 16.132812 3.648438 32.894531 5.738281 50.023437 6.171875 68.433594-20.527344 125.300781-64.167969 160.785157-120.394531 30.550781-1.738282 56.699218-11.746094 74.71875-20.898438 4.148437-8.257812 7.882812-16.890625 11.128906-25.621094zm0 0"/></g><path d="m270.328125 470.464844c-22.132813 9.019531-45.875 15.402344-70.742187 18.667968 16.132812 3.648438 32.636718 5.828126 49.765624 6.261719 16.132813-4.839843 31.777344-11.023437 46.496094-18.292969-8.683594-1.816406-17.160156-4.015624-25.519531-6.636718zm0 0" fill="#afdc82"/></g><g transform="matrix(0.03906251862645149 0 0 0.03906251862645149 165 165)" id="L1_833"><path d="m246.324219 73.558594v-41.808594c0-5.246094-4.800781-9.179688-9.941407-8.148438l-42.527343 8.570313v54.546875zm0 0" fill="#e1ffa0"/><g fill="#b4e6a0"><path d="m156.386719 1.664062c3.671875-2.753906 8.878906-2.011718 11.632812 1.660157l20.121094 27.117187-58.355469 46.582032v-55.414063zm0 0"/><path d="m103.363281 1.664062c-3.671875-2.753906-8.882812-2.011718-11.636719 1.660157l-20.121093 27.117187 58.355469 46.582032v-55.414063zm0 0"/><path d="m65.199219 32-41.660157-9.09375c-5.144531-1.027344-9.941406 2.90625-9.941406 8.152344v40.769531l42.941406 12.464844zm0 0"/></g><path d="m221.390625 104.726562-23.511719 23.511719c-6.234375 6.234375-9.738281 14.691407-9.738281 23.507813v293.761718c0 27.539063-22.328125 49.867188-49.867187 49.867188h-8.3125v-398.960938h91.429687zm0 0" fill="#e1ffa0"/><path d="m38.53125 104.726562 23.507812 23.511719c6.238282 6.234375 9.738282 14.691407 9.738282 23.507813v293.761718c0 27.539063 22.328125 49.867188 49.871094 49.867188h8.3125v-398.960938h-91.429688zm0 0" fill="#b4e6a0"/><path d="m123.285156 66.863281-53.152344-40.828125c-4.152343-3.1875-10.199218-.65625-10.839843 4.539063l-5.046875 40.996093c-.453125 3.671876-4.054688 6.089844-7.628906 5.121094l-35.609376-9.695312c-6.207031-1.6875-11.898437 4.003906-10.207031 10.207031l10.464844 38.367187c1.972656 7.230469 8.539063 12.246094 16.035156 12.246094h34.324219v-3.289062c0-6.308594 6.753906-10.316406 12.289062-7.292969l36.347657 19.828125 16.789062-58.792969c1.203125-4.214843-.289062-8.734375-3.765625-11.40625zm0 0" fill="#96d7a5"/><path d="m259.121094 77.203125-10.464844 38.367187c-1.972656 7.230469-8.542969 12.246094-16.039062 12.246094h-34.320313v-34.320312c0-7.496094 5.015625-14.0625 12.25-16.035156l38.367187-10.464844c6.203126-1.691406 11.898438 4 10.207032 10.207031zm0 0" fill="#cdf5a0"/><path d="m200.746094 30.574219c-.640625-5.195313-6.683594-7.726563-10.835938-4.539063l-53.152344 40.828125c-3.476562 2.671875-4.96875 7.191407-3.765624 11.40625l5.179687 18.144531h-33.144531v398.960938c0 9.183594 7.441406 16.625 16.621094 16.625h16.625c9.179687 0 16.621093-7.441406 16.621093-16.625v-346.304688c0-9.125 4.984375-17.519531 12.992188-21.886718l35.5625-19.402344c3.847656-2.097656 6.023437-6.335938 5.488281-10.683594zm0 0" fill="#cdf5a0"/><path d="m129.960938 137.972656 29.71875-37.144531c2.128906-2.664063 2.417968-6.355469.726562-9.316406l-30.445312-53.277344-30.445313 53.277344c-1.691406 2.960937-1.402344 6.652343.726563 9.316406zm0 0" fill="#b4e6a0"/></g><path d="M165,0C74.019,0,0,74.019,0,165s74.019,165,165,165c90.982,0,165-74.019,165-165S255.982,0,165,0z" transform="matrix(0.03030303120613098 0 0 0.03030303120613098 345 82.5)" id="L1_836" fill="#5fe38f"/><g transform="matrix(-0.11718747019767761 0 0 0.11718747019767761 206.93540905369446 232.50000001464844)" id="L1_835"><path d="m495.484375 239.484375c0 132.261719-107.222656 239.484375-239.484375 239.484375s-239.484375-107.222656-239.484375-239.484375c0-132.265625 107.222656-239.484375 239.484375-239.484375s239.484375 107.21875 239.484375 239.484375zm0 0" fill="#cdf5a0"/><path d="m476.046875 144.828125c-11.441406-1.824219-23.398437-3.097656-35.796875-3.601563l-.507812-.019531c-4.867188-.199219-9.640626-.296875-14.183594-.296875-14.527344 0-27.65625.984375-40.144532 3.011719-4.773437.777344-9.488281 1.707031-14.167968 2.714844.15625-4.082031.367187-8.164063.367187-12.246094 0-39.8125-7.484375-79.085937-21.589843-115.226563-6.898438-2.949218-13.972657-5.589843-21.1875-7.890624 17.160156 37.914062 26.261718 80.1875 26.261718 123.117187 0 5.472656-.203125 10.953125-.492187 16.421875-22.339844 6.300781-43.378907 15.316406-62.820313 26.613281-27.429687-44.300781-67.6875-80.207031-114.9375-101.765625-4.160156-1.902344-9.046875-.0625-10.945312 4.085938-1.886719 4.148437-.0625 9.046875 4.089844 10.941406 44.316406 20.21875 82.074218 53.910156 107.789062 95.480469-73.714844 49.074219-120.878906 132.664062-120.878906 226.734375 0 15.597656 1.507812 31.121094 4.164062 46.46875 29.113282 12.585937 61.199219 19.597656 94.933594 19.597656 132.261719 0 239.484375-107.222656 239.484375-239.484375 0-33.632813-6.921875-65.609375-19.4375-94.65625zm0 0" fill="#bee891"/><path d="m66.867188 81.152344c-6.210938-1.484375-12.816407.941406-16.617188 6.070312-31.554688 42.554688-50.25 95.214844-50.25 152.261719 0 124.835937 89.371094 228.742187 207.613281 251.371094l40.128907-251.371094c-31.007813-75.753906-99.558594-138.886719-180.875-158.332031zm0 0" fill="#afdc82"/><path d="m78.636719 209.546875c0-41.433594 9.347656-80.789063 25.84375-115.980469-12.140625-5.148437-24.734375-9.335937-37.617188-12.414062-6.207031-1.484375-12.8125.941406-16.613281 6.070312-31.554688 42.554688-50.25 95.214844-50.25 152.261719 0 124.835937 89.371094 228.742187 207.613281 251.371094l7.167969-44.914063c-81.386719-47.347656-136.144531-135.449218-136.144531-236.394531zm0 0" fill="#96cd82"/><path d="m504.128906 176.511719c-1.453125-5.734375-6.011718-10.285157-11.757812-11.6875-17.226563-4.199219-35.144532-6.382813-52.789063-7.09375l-.507812-.019531c-17.046875-.695313-34.171875-.222657-51.011719 2.515624-121.71875 19.769532-214.640625 125.371094-214.640625 252.675782 0 25.078125 3.667969 49.285156 10.390625 72.191406 35.285156 10.355469 73.671875 13.464844 113.5625 7.074219 107.964844-17.300781 194.003906-103.335938 211.308594-211.300781 5.839844-36.441407 3.75-71.636719-4.554688-104.355469zm0 0" fill="#cdf5a0"/><path d="m52.054688 233.144531c.363281.046875.726562.074219 1.089843.074219 4.082031 0 7.628907-3.019531 8.175781-7.171875.597657-4.476563 1.308594-8.921875 2.140626-13.316406.84375-4.484375-2.097657-8.800781-6.574219-9.652344-4.558594-.890625-8.808594 2.09375-9.652344 6.570313-.894531 4.703124-1.65625 9.445312-2.285156 14.226562-.59375 4.519531 2.582031 8.671875 7.105469 9.269531zm0 0" fill="#afdc82"/><path d="m198.554688 484.632812c-46.675782-25.648437-83.648438-62.941406-107.785157-106.363281 4.980469-6.980469 24.070313-32.074219 52.511719-49.175781 3.910156-2.347656 5.179688-7.421875 2.832031-11.332031-2.355469-3.910157-7.425781-5.179688-11.332031-2.824219-25.089844 15.078125-43.210938 35.324219-52.382812 46.957031-15-32.214843-23.214844-67.238281-23.214844-103.140625 0-4.5625-3.691406-8.257812-8.257813-8.257812-4.5625 0-8.257812 3.695312-8.257812 8.257812 0 12.320313.902343 24.546875 2.644531 36.605469-19.378906-7.925781-36.164062-23.125-44.128906-31.097656.835937 8.660156 2.09375 17.179687 3.769531 25.566406 11.535156 9.25 26.902344 19.285156 43.769531 24.113281 13.59375 61.757813 49.660156 118.09375 101.875 158.839844 16.476563 7.460938 33.742188 13.242188 51.929688 16.984375-.554688-2.109375-1.90625-4-3.972656-5.132813zm0 0" fill="#afdc82"/><g fill="#bee891"><path d="m116.894531 349.03125c7.5-6.882812 16.347657-13.902344 26.386719-19.9375 3.910156-2.347656 5.179688-7.421875 2.832031-11.332031-2.355469-3.910157-7.425781-5.179688-11.332031-2.824219-9.804688 5.890625-18.558594 12.574219-26.117188 19.21875 2.597657 5.054688 5.335938 10.011719 8.230469 14.875zm0 0"/><path d="m173.550781 416.535156c.339844 23.773438 3.871094 46.777344 10.265625 68.566406 35.285156 10.355469 73.667969 13.457032 113.558594 7.066407 13.5625-2.171875 26.773438-5.4375 39.550781-9.6875-62.316406-3.390625-119.03125-27.683594-163.375-65.945313zm0 0"/><path d="m496.183594 328.414062c-11.199219 7.460938-39.667969 24.199219-75.640625 28.972657 18.929687-35.808594 29.519531-75.898438 29.519531-117.902344 0-4.558594-3.691406-8.257813-8.257812-8.257813-4.5625 0-8.257813 3.699219-8.257813 8.257813 0 71.136719-32.53125 136.445313-85.128906 182.78125-6.195313-21.550781-21.097657-68.5625-43.878907-110.34375-2.183593-4.011719-7.21875-5.488281-11.199218-3.300781-4.011719 2.183594-5.484375 7.199218-3.300782 11.203125 24.699219 45.296875 40.21875 98.527343 44.425782 113.898437-37.621094 28.90625-83.886719 48.730469-134.9375 55.433594 16.132812 3.648438 32.894531 5.738281 50.023437 6.171875 68.433594-20.527344 125.300781-64.167969 160.785157-120.394531 30.550781-1.738282 56.699218-11.746094 74.71875-20.898438 4.148437-8.257812 7.882812-16.890625 11.128906-25.621094zm0 0"/></g><path d="m270.328125 470.464844c-22.132813 9.019531-45.875 15.402344-70.742187 18.667968 16.132812 3.648438 32.636718 5.828126 49.765624 6.261719 16.132813-4.839843 31.777344-11.023437 46.496094-18.292969-8.683594-1.816406-17.160156-4.015624-25.519531-6.636718zm0 0" fill="#afdc82"/></g><path d="M165,0C74.019,0,0,74.019,0,165s74.019,165,165,165c90.982,0,165-74.019,165-165S255.982,0,165,0z" transform="matrix(0.03030303120613098 0 0 0.03030303120613098 82.5 257.5)" id="L1_837" fill="#32d0fc"/><g transform="matrix(0.07812503725290298 0 0 0.07812503725290298 242.5 67.5)" id="L1_838"><path d="m258.636719 48.164062c-.976563-1.226562-2.59375-1.765624-4.121094-1.394531l-19.847656 4.964844-16.417969-49.265625c-1.101562-3.292969-6.554688-3.292969-7.65625 0l-16.421875 49.265625-19.84375-4.964844c-1.523437-.359375-3.136719.167969-4.121094 1.394531-.984375 1.230469-1.164062 2.914063-.464843 4.324219l41.070312 82.140625c.683594 1.363282 2.078125 2.230469 3.609375 2.230469 1.527344 0 2.921875-.867187 3.605469-2.230469l41.070312-82.140625c.703125-1.410156.523438-3.09375-.460937-4.324219zm0 0" fill="#96d7a5"/><path d="m217.644531 178.726562-53.742187-71.519531c-.941406-1.253906-2.542969-1.859375-4.070313-1.515625-1.542969.332032-2.75 1.53125-3.089843 3.066406l-4.277344 19.355469-49.996094-7.089843c-1.703125-.203126-3.402344.636718-4.175781 2.191406-.78125 1.558594-.472657 3.433594.753906 4.65625l35.738281 35.664062-12.898437 15.070313c-1.023438 1.199219-1.257813 2.882812-.597657 4.308593.664063 1.4375 2.089844 2.351563 3.664063 2.351563l89.46875-.078125c1.527344 0 2.929687-.867188 3.605469-2.230469.6875-1.371093.539062-3.011719-.382813-4.230469zm0 0" fill="#78c3a5"/><path d="m330.550781 123.214844c-.773437-1.550782-2.46875-2.402344-4.175781-2.191406l-50 7.09375-4.277344-19.359376c-.339844-1.535156-1.542968-2.734374-3.085937-3.0625-1.539063-.347656-3.128907.257813-4.074219 1.511719l-53.738281 71.519531c-.921875 1.222657-1.070313 2.859376-.386719 4.230469.675781 1.363281 2.078125 2.230469 3.609375 2.230469l89.464844.078125c1.578125 0 3.003906-.914063 3.664062-2.347656.664063-1.425781.425781-3.109375-.597656-4.308594l-12.898437-15.070313 35.738281-35.667968c1.230469-1.222656 1.535156-3.097656.757812-4.65625zm0 0" fill="#b4e6a0"/><path d="m331 302.644531 37.871094-61.183593c.84375-1.371094 2.410156-2.0625 4-1.875 1.59375.230468 2.890625 1.378906 3.316406 2.921874l4.46875 16.269532 42.890625-8.300782c1.667969-.300781 3.425781.480469 4.277344 1.984376.851562 1.511718.636719 3.394531-.519531 4.6875l-29.324219 32.371093 11.597656 12.25c1.101563 1.167969 1.410156 2.886719.777344 4.367188-.636719 1.472656-2.085938 2.433593-3.691407 2.441406l-72.222656.21875c-.007812 0-.007812 0-.015625 0-1.460937 0-2.804687-.785156-3.523437-2.0625-.714844-1.285156-.675782-2.84375.097656-4.089844zm0 0" fill="#96d7a5"/><path d="m251.898438 259.890625c.921874-1.277344 2.53125-1.914063 4.050781-1.59375l16.03125 3.160156 11.394531-40.902343c.464844-1.679688 1.945312-2.863282 3.679688-2.949219 1.9375-.09375 3.332031.953125 3.960937 2.5625l15.433594 39.558593 15.632812-4.761718c1.496094-.449219 3.144531.007812 4.191407 1.183594 1.046874 1.171874 1.308593 2.859374.675781 4.300781l-30.613281 69.796875c-.617188 1.394531-1.972657 2.332031-3.492188 2.402344-.070312.007812-.140625.007812-.203125.007812-1.453125 0-2.796875-.78125-3.515625-2.046875l-37.46875-66.371094c-.773438-1.371093-.679688-3.074219.242188-4.347656zm0 0" fill="#b4e6a0"/><path d="m289.296875 326.359375c.851563-1.261719 2.371094-1.953125 3.871094-1.742187l75.550781 9.976562c1.5625.210938 2.863281 1.308594 3.328125 2.8125s.015625 3.140625-1.160156 4.191406l-12.164063 10.910156 25.832032 33.6875c1.058593 1.378907 1.121093 3.277344.144531 4.71875-.976563 1.445313-2.75 2.113282-4.429688 1.625l-40.886719-11.457031-5.605468 15.355469c-.542969 1.472656-1.890625 2.507812-3.464844 2.632812-.101562.007813-.214844.015626-.324219.015626-1.449219 0-2.796875-.78125-3.511719-2.054688l-37.351562-66.433594c-.75-1.328125-.6875-2.96875.171875-4.238281zm0 0" fill="#78c3a5"/><path d="m214.421875 415.191406c4.457031 0 8.066406-3.609375 8.066406-8.070312v-15.574219c0-8.730469 4.71875-16.804687 12.316407-21.085937l116.703124-65.554688c3.882813-2.179688 5.269532-7.097656 3.085938-10.984375-2.179688-3.898437-7.113281-5.269531-10.984375-3.085937l-116.710937 65.5625c-12.675782 7.140624-20.546876 20.601562-20.546876 35.148437v15.574219c0 4.460937 3.609376 8.070312 8.070313 8.070312zm0 0" fill="#96d7a5"/><path d="m97.84375 302.644531-37.871094-61.183593c-.84375-1.371094-2.410156-2.0625-4.003906-1.875-1.589844.230468-2.890625 1.378906-3.316406 2.921874l-4.464844 16.269532-42.890625-8.300782c-1.671875-.300781-3.425781.480469-4.277344 1.984376-.851562 1.511718-.640625 3.394531.519531 4.6875l29.324219 32.371093-11.597656 12.25c-1.101563 1.167969-1.410156 2.886719-.78125 4.367188.640625 1.472656 2.089844 2.433593 3.695313 2.441406l72.222656.21875h.015625c1.457031 0 2.804687-.785156 3.523437-2.0625.714844-1.285156.675782-2.84375-.097656-4.089844zm0 0" fill="#96d7a5"/><path d="m176.941406 259.890625c-.921875-1.277344-2.527344-1.914063-4.046875-1.59375l-16.035156 3.160156-11.390625-40.902343c-.464844-1.679688-1.945312-2.863282-3.679688-2.949219-1.9375-.09375-3.332031.953125-3.960937 2.5625l-15.4375 39.558593-15.628906-4.761718c-1.496094-.449219-3.144531.007812-4.191407 1.183594-1.046874 1.171874-1.308593 2.859374-.679687 4.300781l30.617187 69.796875c.617188 1.394531 1.96875 2.332031 3.492188 2.402344.070312.007812.140625.007812.203125.007812 1.449219 0 2.796875-.78125 3.515625-2.046875l37.46875-66.371094c.773438-1.371093.675781-3.074219-.246094-4.347656zm0 0" fill="#b4e6a0"/><path d="m139.542969 326.359375c-.851563-1.261719-2.371094-1.953125-3.867188-1.742187l-75.554687 9.976562c-1.558594.210938-2.859375 1.308594-3.324219 2.8125s-.015625 3.140625 1.160156 4.191406l12.164063 10.910156-25.835938 33.6875c-1.054687 1.378907-1.117187 3.277344-.140625 4.71875.976563 1.445313 2.75 2.113282 4.425781 1.625l40.890626-11.457031 5.601562 15.355469c.542969 1.472656 1.890625 2.507812 3.46875 2.632812.101562.007813.210938.015626.320312.015626 1.453126 0 2.796876-.78125 3.515626-2.054688l37.351562-66.433594c.746094-1.328125.683594-2.96875-.175781-4.238281zm0 0" fill="#78c3a5"/><path d="m214.421875 415.191406c-4.460937 0-8.070313-3.609375-8.070313-8.070312v-15.574219c0-8.730469-4.71875-16.804687-12.3125-21.085937l-116.703124-65.554688c-3.882813-2.179688-5.269532-7.097656-3.085938-10.984375 2.179688-3.898437 7.113281-5.269531 10.980469-3.085937l116.710937 65.5625c12.675782 7.140624 20.546875 20.601562 20.546875 35.148437v15.574219c0 4.460937-3.609375 8.070312-8.066406 8.070312zm0 0" fill="#96d7a5"/><path d="m214.421875 512c-4.460937 0-8.070313-3.609375-8.070313-8.066406v-387.242188c0-4.460937 3.609376-8.070312 8.070313-8.070312s8.066406 3.609375 8.066406 8.070312v387.242188c0 4.457031-3.609375 8.066406-8.066406 8.066406zm0 0" fill="#b4e6a0"/></g></defs><g fi:class="KUsePattern"><pattern id="pattern_L1_830" width="350" height="350" patternUnits="userSpaceOnUse"><use xlink:href="#L1_830" x="-350" y="-350"/><use xlink:href="#L1_830" x="0" y="-350"/><use xlink:href="#L1_830" x="350" y="-350"/><use xlink:href="#L1_830" x="-350" y="0"/><use xlink:href="#L1_830" x="0" y="0"/><use xlink:href="#L1_830" x="350" y="0"/><use xlink:href="#L1_830" x="-350" y="350"/><use xlink:href="#L1_830" x="0" y="350"/><use xlink:href="#L1_830" x="350" y="350"/></pattern><rect x="0" y="0" width="100%" height="100%" fill="url(#pattern_L1_830)"/></g><g fi:class="KUsePattern"><pattern id="pattern_L1_831" width="350" height="350" patternUnits="userSpaceOnUse"><use xlink:href="#L1_831" x="-350" y="-350"/><use xlink:href="#L1_831" x="0" y="-350"/><use xlink:href="#L1_831" x="350" y="-350"/><use xlink:href="#L1_831" x="-350" y="0"/><use xlink:href="#L1_831" x="0" y="0"/><use xlink:href="#L1_831" x="350" y="0"/><use xlink:href="#L1_831" x="-350" y="350"/><use xlink:href="#L1_831" x="0" y="350"/><use xlink:href="#L1_831" x="350" y="350"/></pattern><rect x="0" y="0" width="100%" height="100%" fill="url(#pattern_L1_831)"/></g><g fi:class="KUsePattern"><pattern id="pattern_L1_832" width="350" height="350" patternUnits="userSpaceOnUse"><use xlink:href="#L1_832" x="-350" y="-350"/><use xlink:href="#L1_832" x="0" y="-350"/><use xlink:href="#L1_832" x="350" y="-350"/><use xlink:href="#L1_832" x="-350" y="0"/><use xlink:href="#L1_832" x="0" y="0"/><use xlink:href="#L1_832" x="350" y="0"/><use xlink:href="#L1_832" x="-350" y="350"/><use xlink:href="#L1_832" x="0" y="350"/><use xlink:href="#L1_832" x="350" y="350"/></pattern><rect x="0" y="0" width="100%" height="100%" fill="url(#pattern_L1_832)"/></g><g fi:class="KUsePattern"><pattern id="pattern_L1_833" width="350" height="350" patternUnits="userSpaceOnUse"><use xlink:href="#L1_833" x="-350" y="-350"/><use xlink:href="#L1_833" x="0" y="-350"/><use xlink:href="#L1_833" x="350" y="-350"/><use xlink:href="#L1_833" x="-350" y="0"/><use xlink:href="#L1_833" x="0" y="0"/><use xlink:href="#L1_833" x="350" y="0"/><use xlink:href="#L1_833" x="-350" y="350"/><use xlink:href="#L1_833" x="0" y="350"/><use xlink:href="#L1_833" x="350" y="350"/></pattern><rect x="0" y="0" width="100%" height="100%" fill="url(#pattern_L1_833)"/></g><g fi:class="KUsePattern"><pattern id="pattern_L1_836" width="350" height="350" patternUnits="userSpaceOnUse"><use xlink:href="#L1_836" x="-350" y="-350"/><use xlink:href="#L1_836" x="0" y="-350"/><use xlink:href="#L1_836" x="350" y="-350"/><use xlink:href="#L1_836" x="-350" y="0"/><use xlink:href="#L1_836" x="0" y="0"/><use xlink:href="#L1_836" x="350" y="0"/><use xlink:href="#L1_836" x="-350" y="350"/><use xlink:href="#L1_836" x="0" y="350"/><use xlink:href="#L1_836" x="350" y="350"/></pattern><rect x="0" y="0" width="100%" height="100%" fill="url(#pattern_L1_836)"/></g><g fi:class="KUsePattern"><pattern id="pattern_L1_835" width="350" height="350" patternUnits="userSpaceOnUse"><use xlink:href="#L1_835" x="-350" y="-350"/><use xlink:href="#L1_835" x="0" y="-350"/><use xlink:href="#L1_835" x="350" y="-350"/><use xlink:href="#L1_835" x="-350" y="0"/><use xlink:href="#L1_835" x="0" y="0"/><use xlink:href="#L1_835" x="350" y="0"/><use xlink:href="#L1_835" x="-350" y="350"/><use xlink:href="#L1_835" x="0" y="350"/><use xlink:href="#L1_835" x="350" y="350"/></pattern><rect x="0" y="0" width="100%" height="100%" fill="url(#pattern_L1_835)"/></g><g fi:class="KUsePattern"><pattern id="pattern_L1_837" width="350" height="350" patternUnits="userSpaceOnUse"><use xlink:href="#L1_837" x="-350" y="-350"/><use xlink:href="#L1_837" x="0" y="-350"/><use xlink:href="#L1_837" x="350" y="-350"/><use xlink:href="#L1_837" x="-350" y="0"/><use xlink:href="#L1_837" x="0" y="0"/><use xlink:href="#L1_837" x="350" y="0"/><use xlink:href="#L1_837" x="-350" y="350"/><use xlink:href="#L1_837" x="0" y="350"/><use xlink:href="#L1_837" x="350" y="350"/></pattern><rect x="0" y="0" width="100%" height="100%" fill="url(#pattern_L1_837)"/></g><g fi:class="KUsePattern"><pattern id="pattern_L1_838" width="350" height="350" patternUnits="userSpaceOnUse"><use xlink:href="#L1_838" x="-350" y="-350"/><use xlink:href="#L1_838" x="0" y="-350"/><use xlink:href="#L1_838" x="350" y="-350"/><use xlink:href="#L1_838" x="-350" y="0"/><use xlink:href="#L1_838" x="0" y="0"/><use xlink:href="#L1_838" x="350" y="0"/><use xlink:href="#L1_838" x="-350" y="350"/><use xlink:href="#L1_838" x="0" y="350"/><use xlink:href="#L1_838" x="350" y="350"/></pattern><rect x="0" y="0" width="100%" height="100%" fill="url(#pattern_L1_838)"/></g></svg>