<svg xmlns="http://www.w3.org/2000/svg" viewBox="0 0 209.42 209.42"><defs><style>.cls-1{fill:#f04d33;}.cls-2{fill:none;}.cls-3{fill:#f8f4bf;}</style></defs><title>Ресурс 29</title><g id="Слой_2" data-name="Слой 2"><g id="Layer_1" data-name="Layer 1"><circle class="cls-1" cx="104.71" cy="104.71" r="104.71"/><circle class="cls-2" cx="104.71" cy="104.71" r="104.71"/><path class="cls-3" d="M136.56,98.58a38.25,38.25,0,0,0,.57-6.39c0-19.38-14.52-35.09-32.42-35.09s-32.4,15.71-32.4,35.09a39.34,39.34,0,0,0,.55,6.39c-11.26,8.66-18.45,21.8-18.45,36.54,0,26.07,22.53,47.21,50.3,47.21S155,161.19,155,135.12c0-14.74-7.19-27.88-18.45-36.54Z"/><path class="cls-3" d="M104.71,63.21A98,98,0,0,1,96.26,54a73.29,73.29,0,0,1-4.94-6.83c-1.3-2.07-2.26-4.08-3.58-6.72S84.63,34.7,81.92,30a16.15,16.15,0,0,1,14.37-2.05,21.17,21.17,0,0,1,11.46,9.15A22.11,22.11,0,0,1,111,50.58a18.53,18.53,0,0,1-6.28,12.63Z"/><path class="cls-3" d="M110,54.56a12.72,12.72,0,0,1,3.3-7.79,14.37,14.37,0,0,1,6.14-4,14.06,14.06,0,0,1,7.36-.47,12.77,12.77,0,0,1,7.29,4.31,28.37,28.37,0,0,1-5.48,5.66,18.09,18.09,0,0,1-5.09,2.7,18.37,18.37,0,0,1-5.76.86A29.36,29.36,0,0,1,110,54.56Z"/></g></g></svg>