<svg xmlns="http://www.w3.org/2000/svg" viewBox="0 0 209.42 209.42"><defs><style>.cls-1{fill:#ef6866;}.cls-2{fill:none;}.cls-3{fill:#f8f4bf;}</style></defs><title>Ресурс 37</title><g id="Слой_2" data-name="Слой 2"><g id="Layer_1" data-name="Layer 1"><circle class="cls-1" cx="104.71" cy="104.71" r="104.71"/><circle class="cls-2" cx="104.71" cy="104.71" r="104.71"/><path class="cls-3" d="M163.67,90.1c0-.32-.4-.56-1.22-.64-3.13-.31-4.79-2.35-8.25-5.06,3.14-3.39,5.56-7.94,5.22-9.19a.51.51,0,0,0-.07-.17.91.91,0,0,0,0-.17c-.38-1.41-3.92-2.52-10.16-3.43,2.12-4.7,2.7-10.39,1.26-10.26-.29-.17-.69,0-1.24.59-2.32,2.58-5.26,2.48-10.28,4.06a7.17,7.17,0,0,0,.16-1.41c-.09-5.23-2.91-12-4.33-12.58a1.21,1.21,0,0,0-.18-.05.67.67,0,0,0-.14-.09c-1.24-.49-4,1.48-8,5.54-2.29-2.43-3.92-3.93-4.36-6.59-.14-.82-.4-1.16-.73-1.17-1.19-.92-3.92,4.62-4.55,9.91,0,0,0,0,0,.07a7.33,7.33,0,0,0-1.57-.36c-7.51-.8-11.05-2.16-11.19-6,0,0-.09.22-.22.6,0-.05,0-.1,0-.15S97.73,68,115.19,71.39l2.07.4c.94,4.09,3,7.59,7.11,8.07,0,.14,0,.26.07.36l-.38.87.5-.58,0,0c.06.27.1.41.1.41a17,17,0,0,0,2.46-1.15c.13,0,.26,0,.39-.06s.09.18.13.27c-.11.42-.17.67-.17.67l-.36.34.11.14-.11.1A17.57,17.57,0,0,0,128.66,83a5,5,0,0,1-1.32,1.08,5.88,5.88,0,0,0,1.64-.75c.23.22.47.43.7.62l-.16,0h.22c.13.11.26.2.4.3l-.08.1A19.23,19.23,0,0,0,133.11,86c-.62,5.07,2,7.69,5.78,8.95.06.13.11.26.17.4,7.79,18.66,21.12,12,21.12,12l-.16,0c.36-.14.56-.24.56-.24-3.9-.11-6.17-3.78-8.79-11.53.87-.11,1.64-.23,2.28-.35C159.3,94.32,164.66,91.24,163.67,90.1Z"/><path class="cls-3" d="M125.36,84.16C93,52.35,71.39,62.17,60,79.39s-12,46.67-13.91,58.26,2.48,15.32,6.72,20,19.55,1.2,44,.59,43.92-12.95,45.91-34.18S125.36,84.16,125.36,84.16ZM75.08,76.31c0,12.59-11.69,10.79-11.69,10.79C66.09,70.92,75.08,76.31,75.08,76.31ZM53.5,134.75C56.2,118.57,65.19,124,65.19,124,65.19,136.55,53.5,134.75,53.5,134.75Zm0-20.68c2.7-16.18,11.69-10.79,11.69-10.79C65.19,115.87,53.5,114.07,53.5,114.07Zm14.39,3.6c2.69-16.19,11.68-10.79,11.68-10.79C79.57,119.46,67.89,117.67,67.89,117.67Zm0-17.09C70.58,84.4,79.57,89.8,79.57,89.8,79.57,102.38,67.89,100.58,67.89,100.58Zm19.78,6.3c2.69-16.19,11.68-10.79,11.68-10.79C99.35,108.68,87.67,106.88,87.67,106.88Z"/></g></g></svg>